{"title":"Carry.on.Behind.1975.DVDRip.x264.Iou1","uid":11143625,"size":736150237,"categoryP":"video","categoryS":"movies","magnet":"?xt=urn:btih:50a40d18aaab69b386292cf0d26bfff062df7c61&amp;dn=Carry.on.Behind.1975.DVDRip.x264.Iou1&amp;tr=udp%3A%2F%2Ftracker.openbittorrent.com%3A80&amp;tr=udp%3A%2F%2Fopen.demonii.com%3A1337&amp;tr=udp%3A%2F%2Ftracker.coppersurfer.tk%3A6969&amp;tr=udp%3A%2F%2Fexodus.desync.com%3A6969","seeders":1,"leechers":0,"uploader":"jaybee211","files":-1,"time":1412211272,"description":"Genre                                    : Comedy\nFormat                                   : MPEG-4\nFormat profile                           : Base Media / Version 2\nCodec ID                                 : mp42\nFile size                                : 702 MiB\nDuration                                 : 1h 26mn\nOverall bit rate mode                    : Variable\nOverall bit rate                         : 1 131 Kbps\n\nVideo\nID                                       : 2\nFormat                                   : AVC\nFormat/Info                              : Advanced Video Codec\nFormat profile                           : &lt;a class=&quot;__cf_email__&quot; href=&quot;/cdn-cgi/l/email-protection&quot; data-cfemail=&quot;f6be9f919eb6bac5d8c7&quot;&gt;[email&amp;#160;protected]&lt;/a&gt;&lt;script cf-hash='f9e31' type=&quot;text/javascript&quot;&gt;\n/* &lt;![CDATA[ */!function(){try{var t=&quot;currentScript&quot;in document?document.currentScript:function(){for(var t=document.getElementsByTagName(&quot;script&quot;),e=t.length;e--;)if(t[e].getAttribute(&quot;cf-hash&quot;))return t[e]}();if(t&amp;&amp;t.previousSibling){var e,r,n,i,c=t.previousSibling,a=c.getAttribute(&quot;data-cfemail&quot;);if(a){for(e=&quot;&quot;,r=parseInt(a.substr(0,2),16),n=2;a.length-n;n+=2)i=parseInt(a.substr(n,2),16)^r,e+=String.fromCharCode(i);e=document.createTextNode(e),c.parentNode.replaceChild(e,c)}}}catch(u){}}();/* ]]&gt; */&lt;/script&gt;\nFormat settings, CABAC                   : Yes\nFormat settings, ReFrames                : 5 frames\nCodec ID                                 : avc1\nCodec ID/Info                            : Advanced Video Coding\nDuration                                 : 1h 26mn\nBit rate mode                            : Variable\nBit rate                                 : 1 030 Kbps\nMaximum bit rate                         : 8 000 Kbps\nWidth                                    : 720 pixels\nHeight                                   : 576 pixels\nDisplay aspect ratio                     : 16:9\nFrame rate mode                          : Constant\nFrame rate                               : 25.000 fps\nStandard                                 : PAL\nColor space                              : YUV\nChroma subsampling                       : 4:2:0\nBit depth                                : 8 bits\nScan type                                : Progressive\nBits/(Pixel*Frame)                       : 0.099\nStream size                              : 640 MiB (91%)\n\nAudio\nID                                       : 1\nFormat                                   : AAC\nFormat/Info                              : Advanced Audio Codec\nFormat profile                           : LC\nCodec ID                                 : 40\nDuration                                 : 1h 26mn\nBit rate mode                            : Variable\nBit rate                                 : 96.0 Kbps\nMaximum bit rate                         : 576 Kbps\nChannel(s)                               : 2 channels\nChannel positions                        : Front: L R\nSampling rate                            : 48.0 KHz\nCompression mode                         : Lossy\nStream size                              : 59.7 MiB (9%)\nLanguage                                 : English\nSubtitles                                : None\n\nSreens. &lt;a href=&quot; http://bayimg.com/oAaOEAAgL&quot; rel=&quot;nofollow&quot; target=&quot;_NEW&quot;&gt; http://bayimg.com/oAaOEAAgL&lt;/a&gt;    \n\nIMDB. &lt;a href=&quot; http://www.imdb.com/title/tt0072764/&quot; rel=&quot;nofollow&quot; target=&quot;_NEW&quot;&gt; http://www.imdb.com/title/tt0072764/&lt;/a&gt;   \n\nStoryline.\nProfessors Vrooshka and Crump decide to visit an archaeological site to study the artifacts there. Lo and behold, it's right next to a caravan site where all manner of people are staying. With a randy Major owning the site, a snobbish mother, and the two professors' constant innuendos, the film ends with a sinking caravan site and a striptease performance as a replacement for the cabaret night. \n\nEnjoy.","torrent":{"xt":"urn:btih:50a40d18aaab69b386292cf0d26bfff062df7c61","amp;dn":"Carry.on.Behind.1975.DVDRip.x264.Iou1","amp;tr":["udp%3A%2F%2Ftracker.openbittorrent.com%3A80","udp%3A%2F%2Fopen.demonii.com%3A1337","udp%3A%2F%2Ftracker.coppersurfer.tk%3A6969","udp%3A%2F%2Fexodus.desync.com%3A6969"],"infoHash":"50a40d18aaab69b386292cf0d26bfff062df7c61","infoHashBuffer":{"type":"Buffer","data":[80,164,13,24,170,171,105,179,134,41,44,240,210,107,255,240,98,223,124,97]},"announce":[],"urlList":[]}}